<svg xmlns="http://www.w3.org/2000/svg" viewBox="0 0 200 60" width="200" height="60">
  <defs>
    <linearGradient id="citaGrad" x1="0%" y1="0%" x2="100%" y2="100%">
      <stop offset="0%" style="stop-color:#7c3aed"/>
      <stop offset="50%" style="stop-color:#4f46e5"/>
      <stop offset="100%" style="stop-color:#2dd4bf"/>
    </linearGradient>
  </defs>
  <!-- S-shaped icon -->
  <g transform="translate(5, 2) scale(0.55)">
    <!-- Top curve -->
    <path d="M45 8 C65 8, 82 18, 82 35 C82 45, 72 52, 58 52 C50 52, 42 48, 42 48 L42 38 C42 38, 50 42, 58 42 C65 42, 72 38, 72 32 C72 22, 60 16, 45 16 C30 16, 18 22, 18 35 L8 35 C8 16, 24 8, 45 8 Z" fill="url(#citaGrad)"/>
    <!-- Bottom curve -->
    <path d="M45 92 C25 92, 8 82, 8 65 C8 55, 18 48, 32 48 C40 48, 48 52, 48 52 L48 62 C48 62, 40 58, 32 58 C25 58, 18 62, 18 68 C18 78, 30 84, 45 84 C60 84, 72 78, 72 65 L82 65 C82 84, 66 92, 45 92 Z" fill="url(#citaGrad)"/>
  </g>
  <!-- "Cita" text -->
  <text x="68" y="42" font-family="Outfit, sans-serif" font-weight="700" font-size="32" fill="#ffffff" letter-spacing="-0.02em">Cita</text>
</svg>
